<?xml version="1.0" standalone="no"?>
<!DOCTYPE svg PUBLIC "-//W3C//DTD SVG 20010904//EN"
 "http://www.w3.org/TR/2001/REC-SVG-20010904/DTD/svg10.dtd">
<svg version="1.0" xmlns="http://www.w3.org/2000/svg"
 width="512.000000pt" height="512.000000pt" viewBox="0 0 512.000000 512.000000"
 preserveAspectRatio="xMidYMid meet">
<metadata>
Created by potrace 1.14, written by Peter Selinger 2001-2017
</metadata>
<g transform="translate(0.000000,512.000000) scale(0.100000,-0.100000)"
fill="#000000" stroke="none">
<path d="M1025 5111 c-11 -5 -29 -19 -40 -31 -20 -22 -20 -38 -23 -2446 l-2
-2424 -396 0 -396 0 -29 -29 c-47 -48 -37 -130 21 -164 26 -16 105 -17 905
-17 973 0 922 -4 951 67 18 41 6 89 -27 119 -20 18 -48 19 -418 24 l-396 5 -3
1735 -2 1735 612 612 613 613 775 -2 775 -3 3 -536 2 -536 -80 -21 c-275 -74
-489 -294 -546 -562 -24 -113 -15 -281 20 -385 84 -247 286 -433 535 -493 l71
-17 0 -122 0 -122 -37 -10 c-21 -6 -193 -49 -383 -96 -190 -47 -360 -92 -378
-100 -45 -21 -67 -73 -52 -121 15 -44 54 -74 97 -74 25 0 636 146 736 176 16
5 17 -20 17 -438 l0 -443 -320 -320 c-315 -316 -320 -321 -320 -362 0 -73 71
-127 136 -103 16 6 160 141 319 300 l290 290 290 -290 c191 -191 301 -294 322
-301 42 -14 96 9 117 50 20 37 20 64 2 99 -8 15 -152 164 -320 332 l-306 305
0 443 c0 418 1 443 18 438 103 -31 710 -176 738 -176 100 0 131 148 40 194
-17 9 -186 55 -376 102 -190 47 -362 89 -383 95 l-37 10 0 122 0 123 73 17
c377 90 629 480 553 856 -34 165 -102 288 -225 404 -107 100 -218 157 -373
191 l-28 6 -2 615 -3 615 -28 27 -27 28 -1528 2 c-840 1 -1536 -2 -1547 -6z
m1055 -208 c0 -10 -893 -903 -902 -903 -10 0 -11 894 -1 903 9 10 903 9 903 0z
m2120 -1299 c252 -71 416 -322 380 -583 -12 -92 -68 -215 -129 -283 -52 -59
-138 -116 -219 -145 -354 -129 -735 157 -709 532 15 215 140 385 339 464 106
43 221 47 338 15z"/>
</g>
</svg>
